<svg width="1080" height="1080" viewBox="0 0 1080 1080" fill="none" xmlns="http://www.w3.org/2000/svg">
<rect width="1080" height="1080" fill="white"/>
<path d="M616.474 617.22L546.557 546.61C535.843 535.79 521.248 529.702 506.021 529.702H446.856C440.436 529.702 434.067 530.854 428.054 533.104L359.434 558.775L398.64 727.494L520.575 605.559C527.138 598.996 537.779 598.996 544.343 605.559L586.164 647.38C596.818 658.034 614.853 654.621 620.878 640.812C624.378 632.788 622.634 623.441 616.474 617.22Z" fill="#00569E" stroke="#193440" stroke-width="12.6769"/>
<path d="M509.02 864.243L338.97 694.193C337.104 692.328 335.832 689.953 335.313 687.367L286.924 446.436L410.441 568.945H481.527L648.317 755.138C656.542 764.32 656.157 778.329 647.441 787.046C638.376 796.11 623.682 796.112 614.614 787.053L631.663 804.101C639.428 811.867 639.428 824.457 631.663 832.222C623.898 839.988 611.308 839.988 603.542 832.222L587.802 816.482C597.094 825.773 596.802 840.925 587.161 849.852C577.831 858.491 563.281 857.992 554.565 848.735L540.474 833.769C548.897 842.742 548.275 856.895 539.091 865.094C530.428 872.829 517.232 872.456 509.02 864.243Z" fill="#00569E"/>
<path d="M511.511 740.191L587.802 816.482C597.094 825.773 596.802 840.925 587.161 849.852V849.852C577.831 858.491 563.281 857.992 554.565 848.735L477.638 767.033L540.451 833.745C548.898 842.716 548.283 856.888 539.091 865.094V865.094C530.428 872.829 517.232 872.456 509.02 864.243L338.97 694.193C337.104 692.328 335.832 689.953 335.313 687.367L286.924 446.436L410.441 568.945H481.527L648.317 755.138C656.542 764.32 656.157 778.329 647.441 787.046V787.046C638.374 796.112 623.674 796.112 614.607 787.046L540.27 712.709L631.663 804.101C639.428 811.867 639.428 824.457 631.663 832.222V832.222C623.898 839.988 611.308 839.988 603.542 832.222L511.511 740.191Z" stroke="#1C333E" stroke-width="12.6769" stroke-linejoin="round"/>
<rect x="358.637" y="691.266" width="43.5647" height="73.1878" rx="21.7824" transform="rotate(45 358.637 691.266)" fill="#019486"/>
<rect x="358.637" y="691.266" width="43.5647" height="73.1878" rx="21.7824" transform="rotate(45 358.637 691.266)" stroke="#193440" stroke-width="12.6769"/>
<rect x="406.023" y="715.955" width="43.5647" height="89.4082" rx="21.7824" transform="rotate(45 406.023 715.955)" fill="#019486"/>
<rect x="406.023" y="715.955" width="43.5647" height="89.4082" rx="21.7824" transform="rotate(45 406.023 715.955)" stroke="#193440" stroke-width="12.6769"/>
<rect x="437.91" y="756.144" width="43.5647" height="83.7087" rx="21.7824" transform="rotate(45 437.91 756.144)" fill="#019486"/>
<rect x="437.91" y="756.144" width="43.5647" height="83.7087" rx="21.7824" transform="rotate(45 437.91 756.144)" stroke="#193440" stroke-width="12.6769"/>
<rect x="466.387" y="799.742" width="43.5647" height="73.1878" rx="21.7824" transform="rotate(45 466.387 799.742)" fill="#019486"/>
<rect x="466.387" y="799.742" width="43.5647" height="73.1878" rx="21.7824" transform="rotate(45 466.387 799.742)" stroke="#193440" stroke-width="12.6769"/>
<rect width="96.7971" height="55.4567" transform="translate(396.325 554.324)" fill="#00569E"/>
<path d="M616.972 576.587L859.135 334.423L906.406 508.142L648.373 755.605L525.75 632.982C517.533 624.765 504.21 624.765 495.993 632.982L453.983 674.993C442.339 686.637 423.461 686.637 411.818 674.993C400.174 663.35 400.174 644.472 411.818 632.828L466.189 578.457C473.155 571.491 482.602 567.578 492.452 567.578H586.26C594.417 567.578 602.24 570.819 608.008 576.587L612.49 581.069L616.972 576.587Z" fill="#019486" stroke="#193440" stroke-width="12.6769"/>
<rect x="583" y="188" width="383.47" height="383.47" rx="191.735" fill="#019486"/>
<path d="M763.763 279.475L670.453 481.434L841.735 362.56H763.763L878.803 279.475H763.763Z" fill="#FAFDFD"/>
<path d="M304.957 188.31L114 379.267L173.105 438.372L423.168 188.31H304.957Z" fill="#47C5FB"/>
<path d="M303.626 364.407L201.382 466.651L260.709 526.864L319.705 467.869L423.168 364.407H303.626Z" fill="#47C5FB"/>
<path d="M260.71 526.864L305.621 571.776H423.167L319.704 467.869L260.71 526.864Z" fill="#00569E"/>
<path d="M200.717 467.316L259.823 408.21L319.704 467.869L260.71 526.865L200.717 467.316Z" fill="#00B5F8"/>
<path d="M260.71 526.865L309.834 510.564L314.714 472.859L260.71 526.865Z" fill="url(#paint0_linear_1_56)" fill-opacity="0.8"/>
<defs>
<linearGradient id="paint0_linear_1_56" x1="474.118" y1="1930.63" x2="4359.49" y2="3330.73" gradientUnits="userSpaceOnUse">
<stop/>
<stop offset="1" stop-opacity="0"/>
</linearGradient>
</defs>
</svg>
