<svg width="1080" height="1080" viewBox="0 0 1080 1080" fill="none" xmlns="http://www.w3.org/2000/svg">
<rect width="1080" height="1080" fill="#1F1F2B"/>
<path d="M620.556 622.085L546.74 547.538C535.412 536.097 519.979 529.66 503.878 529.66H441.415C434.625 529.66 427.89 530.879 421.531 533.258L349.009 560.389L390.458 738.758L519.31 609.906C526.203 603.014 537.378 603.014 544.271 609.906L588.424 654.06C599.718 665.353 618.838 661.735 625.225 647.096C628.936 638.59 627.086 628.68 620.556 622.085Z" fill="#00569E" stroke="#47C5FB" stroke-width="13.1969"/>
<path d="M507.044 882.948L327.513 703.416C325.544 701.447 324.2 698.94 323.652 696.209L272.566 441.845L402.97 571.185H478.018L654.108 767.76C662.792 777.453 662.385 792.243 653.183 801.446C643.618 811.01 628.116 811.018 618.542 801.469L636.526 819.453C644.724 827.651 644.724 840.943 636.526 849.141C628.327 857.34 615.035 857.34 606.837 849.141L590.219 832.524C600.029 842.333 599.721 858.329 589.542 867.754C579.692 876.874 564.331 876.348 555.128 866.574L540.252 850.775C549.144 860.248 548.488 875.19 538.793 883.846C529.646 892.012 515.715 891.618 507.044 882.948Z" fill="#00569E"/>
<path d="M509.674 751.978L590.219 832.524C600.029 842.333 599.721 858.329 589.542 867.754V867.754C579.692 876.874 564.331 876.348 555.128 866.574L473.913 780.317L540.228 850.749C549.146 860.22 548.497 875.182 538.793 883.846V883.846C529.646 892.012 515.715 891.618 507.044 882.948L327.513 703.416C325.544 701.447 324.2 698.94 323.652 696.209L272.566 441.845L402.97 571.185H478.018L654.108 767.76C662.792 777.453 662.385 792.243 653.183 801.446V801.446C643.611 811.018 628.091 811.018 618.519 801.446L540.037 722.964L636.526 819.453C644.724 827.651 644.724 840.943 636.526 849.141V849.141C628.327 857.34 615.035 857.34 606.837 849.141L509.674 751.978Z" stroke="#00B5F8" stroke-width="13.1969" stroke-linejoin="round"/>
<path d="M402.97 571.185H478.018L654.108 767.76C662.792 777.453 662.385 792.243 653.183 801.446V801.446C643.611 811.018 628.091 811.018 618.519 801.446L540.037 722.964L636.526 819.453C644.724 827.651 644.724 840.943 636.526 849.141V849.141C628.327 857.34 615.035 857.34 606.837 849.141L509.674 751.978L590.219 832.524C600.029 842.333 599.721 858.329 589.542 867.754V867.754C579.692 876.875 564.331 876.348 555.128 866.574L473.913 780.317L540.228 850.749C549.146 860.22 548.497 875.182 538.793 883.846V883.846C529.646 892.012 515.715 891.618 507.044 882.948L327.512 703.415C325.543 701.447 324.2 698.94 323.652 696.211L295.344 555.407" stroke="#00B5F8" stroke-width="13.1969" stroke-linecap="round" stroke-linejoin="round"/>
<rect x="348.277" y="700.194" width="46.1805" height="77.4552" rx="23.0902" transform="rotate(45 348.277 700.194)" fill="#019486"/>
<rect x="348.277" y="700.194" width="46.1805" height="77.4552" rx="23.0902" transform="rotate(45 348.277 700.194)" stroke="#FAFDFD" stroke-width="13.1969"/>
<rect x="398.305" y="726.26" width="46.1805" height="94.58" rx="23.0902" transform="rotate(45 398.305 726.26)" fill="#019486"/>
<rect x="398.305" y="726.26" width="46.1805" height="94.58" rx="23.0902" transform="rotate(45 398.305 726.26)" stroke="#FAFDFD" stroke-width="13.1969"/>
<rect x="431.97" y="768.689" width="46.1805" height="88.5627" rx="23.0902" transform="rotate(45 431.97 768.689)" fill="#019486"/>
<rect x="431.97" y="768.689" width="46.1805" height="88.5627" rx="23.0902" transform="rotate(45 431.97 768.689)" stroke="#FAFDFD" stroke-width="13.1969"/>
<rect x="462.035" y="814.718" width="46.1805" height="77.4552" rx="23.0902" transform="rotate(45 462.035 814.718)" fill="#019486"/>
<rect x="462.035" y="814.718" width="46.1805" height="77.4552" rx="23.0902" transform="rotate(45 462.035 814.718)" stroke="#FAFDFD" stroke-width="13.1969"/>
<rect width="102.194" height="58.5487" transform="translate(388.066 555.749)" fill="#00569E"/>
<path d="M620.949 579.187L876.729 323.407L926.692 507.021L664.426 758.543C658.725 764.011 649.699 763.916 644.113 758.331L524.641 638.859C516.002 630.22 501.996 630.22 493.358 638.859L449.005 683.212C436.675 695.541 416.686 695.541 404.357 683.212C392.028 670.883 392.028 650.893 404.357 638.564L461.76 581.161C469.131 573.79 479.128 569.649 489.553 569.649H588.591C597.228 569.649 605.511 573.08 611.618 579.187L616.284 583.852L620.949 579.187Z" fill="#019486" stroke="#FAFDFD" stroke-width="13.1969"/>
<rect x="585.149" y="169" width="404.851" height="404.851" rx="202.425" fill="#019486"/>
<path d="M775.991 265.576L677.479 478.794L858.31 353.292H775.991L897.445 265.576H775.991Z" fill="#FAFDFD"/>
<path d="M244.89 526.758L292.305 574.174H416.405L307.173 464.473L244.89 526.758Z" fill="#00569E"/>
<path d="M291.604 169.328L90 370.931L152.4 433.331L416.405 169.328H291.604Z" fill="#47C5FB"/>
<path d="M290.199 355.243L182.255 463.187L244.889 526.758L307.174 464.473L416.405 355.243H290.199Z" fill="#47C5FB"/>
<path d="M181.552 463.889L243.954 401.488L307.173 464.474L244.89 526.759L181.552 463.889Z" fill="#00B5F8"/>
<path d="M244.89 526.758L296.753 509.548L301.905 469.742L244.89 526.758Z" fill="url(#paint0_linear_1_56)" fill-opacity="0.6"/>
<defs>
<linearGradient id="paint0_linear_1_56" x1="470.197" y1="2008.79" x2="4572.2" y2="3486.95" gradientUnits="userSpaceOnUse">
<stop/>
<stop offset="1" stop-opacity="0"/>
</linearGradient>
</defs>
</svg>
